<?xml version="1.0" standalone="no"?>
<!DOCTYPE svg PUBLIC "-//W3C//DTD SVG 20010904//EN"
 "http://www.w3.org/TR/2001/REC-SVG-20010904/DTD/svg10.dtd">
<svg version="1.0" xmlns="http://www.w3.org/2000/svg"
 width="256.000000pt" height="256.000000pt" viewBox="0 0 256.000000 256.000000"
 preserveAspectRatio="xMidYMid meet">

<g transform="translate(0.000000,256.000000) scale(0.100000,-0.100000)"
fill="#000000" stroke="none">
<path d="M1140 2554 c-208 -27 -407 -101 -580 -217 -96 -64 -273 -241 -337
-337 -95 -142 -163 -302 -199 -470 -26 -119 -26 -381 0 -500 56 -259 167 -463
355 -651 188 -188 392 -299 651 -355 119 -26 381 -26 500 0 259 56 463 167
651 355 188 188 299 392 355 651 26 119 26 381 0 500 -56 259 -167 463 -355
651 -185 185 -379 293 -631 350 -83 19 -331 33 -410 23z m373 -70 c488 -92
877 -484 973 -982 23 -116 23 -328 0 -444 -97 -502 -482 -887 -984 -984 -116
-23 -328 -23 -444 0 -502 97 -887 482 -984 984 -23 116 -23 328 0 444 105 546
552 951 1106 1002 72 6 248 -4 333 -20z"/>
<path d="M1237 1918 c-18 -29 -60 -99 -93 -155 l-59 -103 -173 0 c-170 0 -173
0 -197 -25 -32 -31 -31 -41 5 -98 32 -50 41 -55 60 -32 10 12 8 21 -9 48 -12
19 -21 37 -21 41 0 3 79 6 175 6 154 0 177 2 193 18 9 9 52 79 96 155 43 75
81 139 85 141 4 3 44 -60 90 -140 46 -79 93 -151 104 -159 17 -12 57 -15 190
-15 157 0 169 -1 162 -17 -27 -65 -29 -73 -19 -83 17 -17 38 -3 63 45 28 53
23 91 -15 105 -14 6 -100 10 -192 10 l-167 0 -75 132 c-95 167 -104 178 -141
178 -24 0 -35 -9 -62 -52z"/>
<path d="M884 1535 c-4 -8 -4 -22 0 -30 5 -13 60 -15 414 -15 352 0 411 2 422
15 10 12 10 18 0 30 -11 13 -70 15 -422 15 -354 0 -409 -2 -414 -15z"/>
<path d="M779 1427 c-30 -23 -39 -56 -39 -147 0 -130 19 -159 107 -160 41 0
58 5 80 24 28 24 28 26 28 136 0 110 0 112 -28 136 -22 19 -39 24 -80 24 -29
0 -59 -6 -68 -13z m105 -43 c13 -5 16 -24 16 -105 0 -96 -1 -99 -24 -105 -13
-3 -35 -4 -47 -2 -23 3 -24 7 -27 97 -1 52 -1 100 2 108 6 13 52 18 80 7z"/>
<path d="M1035 1416 c-25 -25 -26 -28 -23 -158 3 -125 4 -133 23 -133 18 0 20
8 23 77 l3 77 52 3 c44 3 52 6 52 23 0 17 -8 20 -52 23 -44 3 -53 6 -53 21 0
26 19 39 65 43 32 2 40 7 40 23 0 17 -8 20 -52 23 -45 3 -56 -1 -78 -22z"/>
<path d="M1259 1427 c-32 -25 -39 -56 -39 -177 0 -103 2 -122 16 -127 28 -10
44 25 44 93 l0 63 48 3 c39 3 47 6 47 23 0 16 -8 21 -40 23 -60 4 -66 8 -56
34 6 18 18 24 52 28 36 4 44 9 44 25 0 17 -7 20 -50 22 -28 2 -57 -2 -66 -10z"/>
<path d="M1466 1419 c-25 -20 -26 -23 -26 -139 0 -116 1 -119 26 -139 29 -23
102 -29 121 -10 19 19 3 39 -32 39 -53 0 -65 9 -65 46 0 32 1 33 48 36 43 3
47 5 47 28 0 23 -4 25 -47 28 -47 3 -48 4 -48 36 0 37 12 46 65 46 35 0 51 20
32 39 -19 19 -92 13 -121 -10z"/>
<path d="M1674 1415 c-24 -24 -25 -28 -22 -157 3 -125 4 -133 23 -133 18 0 20
8 23 63 2 34 7 62 12 62 4 0 32 -29 60 -65 33 -41 59 -65 69 -63 28 5 23 33
-14 79 -39 49 -42 59 -20 59 55 0 76 110 30 155 -20 21 -34 25 -80 25 -46 0
-60 -4 -81 -25z m126 -39 c6 -8 10 -25 8 -38 -3 -20 -9 -23 -55 -26 -52 -3
-53 -3 -53 25 0 16 5 34 12 41 17 17 73 15 88 -2z"/>
<path d="M720 1023 c-36 -57 -37 -67 -5 -98 24 -25 27 -25 198 -25 l175 0 72
-127 c102 -177 106 -183 140 -183 35 0 44 11 143 180 l73 125 183 5 c166 5
184 7 197 24 19 27 18 44 -8 93 -24 46 -45 60 -62 43 -10 -10 -8 -18 19 -82 7
-17 -5 -18 -162 -18 -134 0 -173 -3 -190 -15 -12 -8 -59 -80 -104 -160 -45
-79 -86 -142 -89 -140 -4 3 -43 66 -86 142 -43 76 -87 146 -96 155 -16 16 -40
18 -193 18 -96 0 -175 3 -175 6 0 4 9 22 21 41 17 27 19 36 9 48 -19 23 -28
18 -60 -32z"/>
<path d="M884 1055 c-4 -8 -4 -22 0 -30 5 -13 60 -15 414 -15 352 0 411 2 422
15 10 12 10 18 0 30 -11 13 -70 15 -422 15 -354 0 -409 -2 -414 -15z"/>
</g>
</svg>
