<svg width="53" height="55" viewBox="0 0 53 55" fill="none" xmlns="http://www.w3.org/2000/svg">
<path d="M43.8621 0C45.0621 0 46.2503 0.237103 47.359 0.697771C48.4677 1.15844 49.475 1.83365 50.3236 2.68485C51.1721 3.53606 51.8452 4.54658 52.3044 5.65873C52.7636 6.77089 53 7.96288 53 9.16667C53 20.8798 50.0905 33.3428 45.6897 36.1038V55H42.0345V36.1057C37.7141 33.396 34.8301 21.3253 34.7278 9.79917L34.7241 9.16667L34.7333 8.76883C34.8355 6.40888 35.8419 4.17959 37.5427 2.54588C39.2435 0.912159 41.5073 0.000136478 43.8621 0ZM27.4138 0V33.2163C31.6483 34.2375 34.7241 38.7347 34.7241 44C34.7241 49.995 30.7345 55 25.5862 55C20.4379 55 16.4483 49.995 16.4483 44C16.4483 38.7347 19.5241 34.2357 23.7586 33.2163V0H27.4138ZM0 0H1.82759C9.9969 0 14.5001 11.6692 14.6189 33.9258L14.6207 36.6667H3.65334L3.65517 55H0V0ZM25.5862 36.6667C22.6584 36.6667 20.1034 39.8713 20.1034 44C20.1034 48.1287 22.6584 51.3333 25.5862 51.3333C28.514 51.3333 31.069 48.1287 31.069 44C31.069 39.8713 28.514 36.6667 25.5862 36.6667ZM3.65517 4.10483V33H10.9564L10.9253 31.2327L10.876 29.4928C10.3679 14.9545 7.73983 6.64217 4.06455 4.334L3.84524 4.20567L3.65517 4.10483ZM38.3884 8.844L38.3793 9.16667L38.383 9.735C38.4652 17.6568 40.2672 26.4788 42.0363 30.6167V3.97833C41.0185 4.33937 40.1295 4.99361 39.4806 5.85911C38.8317 6.72461 38.4518 7.76291 38.3884 8.844ZM45.6915 3.98017V30.6112C47.499 26.3762 49.3448 17.2333 49.3448 9.16667C49.3448 8.02918 48.9933 6.91967 48.3387 5.99086C47.6841 5.06204 46.7586 4.35958 45.6897 3.98017H45.6915Z" fill="black"/>
</svg>
