<?xml version="1.0" standalone="no"?>
<!DOCTYPE svg PUBLIC "-//W3C//DTD SVG 20010904//EN"
 "http://www.w3.org/TR/2001/REC-SVG-20010904/DTD/svg10.dtd">
<svg version="1.0" xmlns="http://www.w3.org/2000/svg"
 width="512.000000pt" height="512.000000pt" viewBox="0 0 512.000000 512.000000"
 preserveAspectRatio="xMidYMid meet">

<g transform="translate(0.000000,512.000000) scale(0.100000,-0.100000)"
fill="#000000" stroke="none">
<path d="M1695 4306 c-151 -24 -258 -70 -336 -143 -80 -75 -80 -75 -77 -490
l3 -363 65 42 c67 42 246 147 652 383 l237 137 -13 32 c-67 154 -152 335 -165
350 -47 56 -207 78 -366 52z"/>
<path d="M3175 3989 c-224 -23 -428 -81 -641 -183 -130 -63 -491 -268 -954
-544 -306 -183 -884 -567 -948 -631 -91 -91 -107 -136 -173 -484 -32 -171 -58
-312 -56 -313 4 -4 241 76 249 84 3 4 25 108 47 232 23 124 47 238 53 253 18
45 88 99 393 302 325 215 501 325 750 470 94 54 267 154 385 223 533 311 734
372 1190 359 273 -8 471 -46 570 -111 32 -21 37 -31 58 -116 12 -51 20 -95 18
-97 -3 -3 -47 4 -98 16 -160 36 -287 51 -468 58 -345 11 -618 -44 -890 -181
-155 -78 -1400 -791 -1411 -809 -7 -10 -22 -138 -16 -143 1 -2 347 169 767
379 802 402 874 433 1085 476 166 34 371 46 553 32 159 -11 343 -36 486 -66
68 -14 93 -15 187 -4 60 7 109 17 109 22 0 5 -30 124 -66 264 -40 157 -73 267
-86 284 -48 64 -194 142 -333 178 -191 48 -552 72 -760 50z"/>
<path d="M4825 3034 c-468 -26 -773 -64 -1149 -140 -698 -141 -1354 -382
-2224 -818 -697 -349 -1033 -476 -1261 -476 -113 0 -160 -53 -182 -204 -20
-137 15 -366 76 -486 29 -57 73 -96 123 -110 47 -12 4378 -321 4398 -313 29
11 35 50 18 123 -18 83 -64 162 -143 245 -121 130 -108 233 56 440 141 178
293 450 386 690 107 275 184 640 190 898 2 85 2 87 -31 119 -31 32 -36 33
-115 34 -45 1 -109 0 -142 -2z m-1341 -655 c56 -15 128 -87 162 -162 26 -55
29 -73 29 -162 0 -118 -23 -183 -86 -239 -155 -141 -373 22 -374 279 0 134 47
229 137 274 48 24 76 26 132 10z m-956 -386 c76 -60 117 -190 92 -293 -14 -60
-77 -134 -123 -145 -78 -20 -170 44 -208 143 -44 118 -7 265 79 312 51 28 112
21 160 -17z m-939 -299 c66 -39 100 -151 71 -238 -28 -85 -119 -113 -184 -56
-79 70 -86 208 -15 280 35 35 84 40 128 14z m-812 -279 c31 -22 57 -96 48
-141 -8 -43 -54 -94 -84 -94 -12 0 -38 15 -59 34 -35 33 -37 37 -37 99 0 55 4
69 24 91 28 30 74 34 108 11z"/>
</g>
</svg>
